<?xml version="1.0" encoding="utf-8"?>
<!DOCTYPE svg PUBLIC "-//W3C//DTD SVG 1.1//EN" "http://www.w3.org/Graphics/SVG/1.1/DTD/svg11.dtd">
<svg xmlns="http://www.w3.org/2000/svg" xmlns:xlink="http://www.w3.org/1999/xlink" width="400" height="400" viewBox="
-38.6737917550000248 6.79093274122188006 0.286073633000057725 0.264483047008390315">
<path fill="blue" fill-opacity="0.2" stroke="blue" stroke-width="0.001" d="
M -38.562532089999976 6.796876818222003 L -38.562179947999972 6.797321810222051 -38.55927707300004 6.798602551221968 -38.547506643000034 6.801882080222072 -38.542463466999941 6.802156202222193 -38.539150458000002 6.802801451222201 -38.536774729999983 6.803679891222231 -38.532214460999967 6.80446294222218 -38.524165141000005 6.804964437222289 -38.519527480999976 6.805511802222277 -38.516858105000004 6.805462510222284 -38.502549721999976 6.804452797222233 -38.495056073999983 6.805781063222263 -38.478117520000026 6.808784191222408 -38.466113549999974 6.810218970222465 -38.45200701499995 6.811073082222435 -38.446468935000027 6.811992998222429 -38.439386070000012 6.813561272222607 -38.436122154000046 6.813835112222527 -38.433155322999973 6.814294452222605 -38.430287937999957 6.814291693222557 -38.428201988000026 6.814006025222547 -38.424862752999964 6.812067742222489 -38.42317321499997 6.80964757322235 -38.419798822000011 6.836922325223277 -38.418267016000016 6.849298920223696 -38.417779309999986 6.8532386752238 -38.417777061999978 6.855155895223888 -38.418371314999938 6.856312483223931 -38.418984200999937 6.857806518224002 -38.418736410999948 6.858587671223972 -38.418060060999942 6.85965211322403 -38.417905025999993 6.860257265224092 -38.418212707999963 6.860776554224074 -38.419470749999959 6.861598771224067 -38.419594213000046 6.861887138224034 -38.41943916000001 6.863008928224126 -38.418576496999954 6.864936723224204 -38.418728128999973 6.866090811224218 -38.419018959999967 6.86725101122429 -38.419062094999987 6.867423412224255 -38.420319537000019 6.872443333224467 -38.42227843700001 6.877572608224675 -38.425094052000006 6.888405938224942 -38.425458659999975 6.891228444225064 -38.425948982999955 6.892727499225018 -38.426929953999938 6.894687091225151 -38.42791275199999 6.895726021225137 -38.429508583999954 6.896706576225178 -38.430858987999954 6.897284062225175 -38.432088530999991 6.898091646225204 -38.432824674999971 6.898899418225248 -38.431004239999986 6.912244929225636 -38.429477092000013 6.923434243226048 -38.427300129999928 6.937016873226511 -38.423400991999983 6.965824430227435 -38.423030954000012 6.966458488227403 -38.42282414299995 6.966389076227436 -38.421310272000014 6.965879273227443 -38.41420730900002 6.965764233227425 -38.408153038000023 6.967302148227397 -38.407291658999981 6.96741785222747 -38.405941149999975 6.9679935882275 -38.404955795999982 6.968107083227473 -38.40311063699999 6.969198498227541 -38.400400808000043 6.97322672122759 -38.398426867999966 6.978006083227797 -38.387718121999967 6.986978571228114 -38.393850294999929 6.986600287228079 -38.407335455999963 6.985222641228042 -38.415652558000055 6.984976545228022 -38.433156301999965 6.986559105228132 -38.447158290999958 6.987482524228064 -38.453399827999995 6.984833974228039 -38.453624706000042 6.984738511227953 -38.453656138999975 6.984725167228007 -38.453819893999935 6.984655561228017 -38.454544519000031 6.984347552228023 -38.462077144000048 6.987616060228099 -38.472181389000035 6.988984932228121 -38.480019058999979 6.988242435228145 -38.492627040000002 6.990281636228204 -38.49641812499997 6.99050245222827 -38.503656448999976 6.989810358228112 -38.50479510899995 6.99030660222823 -38.505341683000054 6.991980143228318 -38.505050821999973 6.992790708228242 -38.503145236000044 6.994546138228358 -38.50319131899986 6.995889480228307 -38.504036595999985 6.996627002228486 -38.511563010000025 6.998132936228387 -38.514444101000016 6.999185726228546 -38.515936210999932 7.000263380228539 -38.52168738999999 7.009208724228827 -38.529556764999981 7.012120263228852 -38.530849996000043 7.012598832228925 -38.533900906999968 7.016934209229078 -38.536588369000022 7.023526662229202 -38.541296874999958 7.028756827229401 -38.544165036000038 7.031238153229452 -38.546578105000037 7.032530537229626 -38.548445903000037 7.032515802229646 -38.551308510000013 7.031389660229465 -38.557840357000003 7.02705308322939 -38.561628363999986 7.025605134229309 -38.564274417999982 7.025390585229324 -38.567172789999901 7.026258201229346 -38.567343772000015 7.026397251229305 -38.569399056999984 7.028069472229461 -38.573037564999943 7.032359636229607 -38.57645043699997 7.034135367229624 -38.583005232999994 7.047144767230002 -38.585872019999876 7.051569784230111 -38.589043825000033 7.054929473230267 -38.589942936999996 7.05541578823027 -38.600766126999957 7.055225200230311 -38.612206405000002 7.055023418230313 -38.615396943000022 7.054566784230282 -38.625783399999996 7.048212846230001 -38.633286475999967 7.045066969229943 -38.63421428599991 7.045267637229941 -38.637257116999962 7.046932286230003 -38.640127583000059 7.046779659230076 -38.661768431000063 7.036557321229736 -38.663644060999999 7.036040050229659 -38.665080710000026 7.036405276229679 -38.669849026999941 7.047704612230049 -38.673791755000025 7.046226982230003 -38.673219772000039 7.045349985230004 -38.672592590000015 7.04438835222993 -38.672409322999954 7.042418234229899 -38.672959123999966 7.039256880229722 -38.671263505000006 7.0329950772296 -38.667506934999956 7.028810668229418 -38.666224066000041 7.026519832229319 -38.66618361099998 7.026236646229336 -38.665949166000033 7.024595530229263 -38.665032831999888 7.021617444229236 -38.66480374799994 7.018914257229127 -38.666720857999934 7.015631946229064 -38.666707573999986 7.015611064229027 -38.649627322000029 6.988761750228214 -38.646916155000063 6.984499930228019 -38.645233177999991 6.972883077227671 -38.642438578999958 6.957596514227177 -38.642178067999986 6.956238357227065 -38.639244192999975 6.940942779226624 -38.634592650999949 6.916692244225814 -38.639615134999936 6.900920443225317 -38.643454589000001 6.888863640224976 -38.648149404000051 6.879368851224612 -38.647790652999944 6.877731474224674 -38.64745037800003 6.877019272224544 -38.645021829999997 6.871936263224434 -38.645253549999985 6.871534128224468 -38.645407641000034 6.871266715224372 -38.646288882000029 6.869737384224308 -38.644900497999998 6.869454192224325 -38.645293512000009 6.867161869224283 -38.643543523999988 6.865347504224175 -38.643122745999989 6.864101893224145 -38.643484907000023 6.862913688224154 -38.645445517999974 6.861868356224079 -38.645630818000029 6.861131547224048 -38.641394256999966 6.854897951223862 -38.638599714999941 6.852832188223829 -38.637332752000006 6.852435785223804 -38.635550251000048 6.852689094223798 -38.634102371999973 6.849803669223711 -38.632589321000019 6.849514113223734 -38.628638823999999 6.847615415223665 -38.627672984000021 6.846538267223629 -38.628973815000009 6.843966648223571 -38.628733242999999 6.842606168223448 -38.627586304999959 6.841530444223437 -38.624746827000031 6.842716381223418 -38.622837029000017 6.842684517223447 -38.618978348000049 6.841382735223469 -38.616323035999997 6.842003027223456 -38.615512777000014 6.841343885223452 -38.617381672000015 6.839087788223388 -38.61874394300002 6.835550373223271 -38.618926179999995 6.83402044522316 -38.618504859000041 6.832097195223099 -38.616392424999965 6.830679969223077 -38.61400755599999 6.827989618222965 -38.612861020999986 6.827648582222992 -38.612438257999997 6.826515808222879 -38.613164911999995 6.825442032222945 -38.612291293000006 6.823204454222811 -38.609573874999967 6.822296243222809 -38.607945065999935 6.820427619222741 -38.608217691999933 6.817680380222626 -38.606953869999991 6.814169661222586 -38.606048768999976 6.814168888222518 -38.605808085000042 6.812697651222472 -38.604931942000029 6.812724848222501 -38.603826132000016 6.81374240022258 -38.600220330000006 6.813569421222567 -38.598319989999979 6.812586894222456 -38.597403727000021 6.809797083222371 -38.595556938999984 6.809419735222413 -38.59440499699997 6.80849695522236 -38.592302501000006 6.804198245222217 -38.590400020999979 6.804196506222162 -38.587195819999984 6.805031548222246 -38.586216979999996 6.804434642222148 -38.587430180000013 6.801624020222121 -38.58697476599999 6.800768998222168 -38.578315741000033 6.801293041222095 -38.576930605999998 6.801940329222091 -38.573931182999985 6.801882088222158 -38.572489843000007 6.800842194222092 -38.572517836000017 6.799569820222068 -38.570647188999956 6.798871283221999 -38.56778836400003 6.79093274122188 Z"/>
</svg>
